<svg width="688" height="397" viewBox="0 0 688 397" fill="none" xmlns="http://www.w3.org/2000/svg">
<rect x="2.42676" y="2.427" width="683.255" height="392.146" rx="6" stroke="#56657F" stroke-width="4"/>
<path d="M345.482 3V394" stroke="#56657F" stroke-width="4" stroke-linecap="round" stroke-linejoin="round"/>
<circle cx="345.482" cy="199.927" r="66.2153" stroke="#56657F" stroke-width="4"/>
<path d="M3 54.3723H119.442C120.546 54.3723 121.442 55.2677 121.442 56.3723V342.055C121.442 343.159 120.546 344.055 119.442 344.055H4.42701" stroke="#56657F" stroke-width="4" stroke-linecap="round" stroke-linejoin="round"/>
<path d="M3 265.569H40.9562C42.0608 265.569 42.9562 264.674 42.9562 263.569V136.285C42.9562 135.18 42.0608 134.285 40.9562 134.285H3" stroke="#56657F" stroke-width="4" stroke-linecap="round" stroke-linejoin="round"/>
<path d="M685.11 54.3723H570.096C568.991 54.3723 568.096 55.2677 568.096 56.3723V342.055C568.096 343.159 568.991 344.055 570.096 344.055H685.11" stroke="#56657F" stroke-width="4" stroke-linecap="round" stroke-linejoin="round"/>
<path d="M685.109 132.858H648.58C647.476 132.858 646.58 133.753 646.58 134.858V262.142C646.58 263.247 647.476 264.142 648.58 264.142H685.109" stroke="#56657F" stroke-width="4" stroke-linecap="round" stroke-linejoin="round"/>
</svg>
